<!-- <?xml version=1.0 encoding="utf-8"> -->
<svg xmlns="http://www.w3.org/2000/svg" >
    
    <symbol id="logo-site"  viewBox= "0 0 139 32" >
        <path  fill="#F68B1E" d="M131.27.26a7.33 7.33 0 0 1 7.21 7.43c0 4.1-3.23 
            7.43-7.21 7.43a7.33 7.33 0 0 1-7.22-7.43c0-4.1 3.23-7.43 
            7.22-7.43zm0 1.1l-1.83 3.8-4.07.62 2.95 2.95-.7 4.18 
            3.64-1.97 3.65 1.97-.7-4.18 2.95-2.95-4.07-.61-1.83-3.8z">
        </path>
        <path fill="#282828" 
            d="M126.3 17.3c.05-.3-.03-.6-.21-.82a.97.97 0 0 0-.76-.36h-.38c-.61 
            0-1.11.52-1.11 1.15V20c0 .55.43 1 .97 1 .52 0 .97-.4 
            1.06-.94l.44-2.76zm-4.9-4.9v-2.37c0-.63-.5-1.14-1.1-1.14h-1.5a1.02 
            1.02 0 0 0-1 1.18l.39 2.38c.1.63.62 1.09 1.24 1.09h.86c.6 0 1.1-.52
            1.1-1.15zm0 7.6v-2.73c0-.63-.5-1.15-1.11-1.15h-.4a.97.97 0 0 
            0-.74.36c-.19.23-.27.53-.22.82l.44 2.76c.09.54.53.93 
            1.06.93s.97-.44.97-.98zm-4.76.62c.19-.23.27-.52.22-.8l-.42-2.61a1.27
            1.27 0 0 0-1.24-1.09h-.6c-.29 0-.57.14-.74.38a.93.93 0 0 0-.16.78c.22.93.43
            1.72.6 2.35l.09.35c.15.6.69 1.01 1.3 1.01h.16c.3 
            0 .6-.13.8-.37zm-4.07-8.1c.15.6.68 1.02 1.3 1.02h.86c.28 
            0 .56-.13.75-.36.18-.23.26-.53.22-.82l-.39-2.39a1.26 1.26 0 0 
            0-1.22-1.08h-1.22a.96.96 0 0 0-.92 1.2l.15.6.47 1.83zm19.1 4.8a1
            1 0 0 0 .01-.4c.97-.07 1.9-.3 2.75-.67L133 22.12c-.2.86-.95 1.46-1.8 
            1.46h-17.02c-.86 0-1.6-.6-1.8-1.46l-4.11-17.28a1.35 1.35 0 0 0-1.3-1.06h-1.72c-.6
            0-1.08-.5-1.08-1.1 0-.62.48-1.13 1.08-1.13h3.14c.86 0 1.6.59 1.82 1.44l.56
            2.27c.16.61.7 1.04 1.31 1.04h10.63a8.76 8.76 0 0 0 6.3 10.38c-.1.15-.18.33-.22.53l-.41 
            2.6c-.05.3.03.6.22.84.18.22.44.34.72.34h.4c.6 0 1.11-.44 
            1.28-1.06l.07-.29c.17-.62.37-1.4.6-2.33zm-16.47 7.96a3.2 3.2 
            0 0 1 3.12 3.29 3.2 3.2 0 0 1-3.12 3.28 3.2 3.2 0 0 1-3.11-3.28
            3.2 3.2 0 0 1 3.11-3.29zm14.97 0a3.2 3.2 0 0 1 3.1 3.29 3.2 3.2
            0 0 1-3.1 3.28 3.2 3.2 0 0 1-3.12-3.28 3.2 3.2 0 0 1
            3.12-3.29zm-94.97.14c-1.38 1-3.6 1.5-6.63 1.5h-4.29c-.58 0-1.2
            0-1.88-.04-.66-.02-1.31-.1-1.96-.24a9.03 9.03 0 0 1-1.84-.6 4.86
            4.86 0 0 1-2.62-2.8 6.8 6.8 0 0 1-.4-2.5V5.45h3.92V20.5c0 1.6 
            1.45 2.39 4.35 2.39h5.27c2.85 0 4.28-.8 4.28-2.39V5.45h3.87v15.29c0 
            2.11-.7 3.67-2.07 4.68zm39.16 1.5V5.46h3.92v21.48h-3.92zm21-16.12l-3.73
            6.4h7.53l-3.8-6.4zm9.38 16.24l-3.25-5.8H89.4l-3.17 5.8h-4.63L93.29 
            6.9c.56-.96 1.3-1.45 2.18-1.45.92 0 1.65.48 2.22 1.43l11.46 
            20.16h-4.41zm-38.14.03V13.1l-8.37 12.85c-.3.45-.64.78-1.02 
            1-.4.23-.8.34-1.25.34-.95
            0-1.73-.45-2.3-1.34l-8.5-12.96v14.1h-3.93V7.8c0-.74.2-1.31.59-1.73.39-.42.9-.63
            1.51-.63.91 0 1.63.37 2.15 1.1l10.5 15.41L66.29 6.6a2.33
            2.33 0 0 1 2.07-1.14c.65 0 1.18.23 1.58.7.4.46.6 1.07.6
            1.83v19.1H66.6zm-54.8-9.72c0 6.55-2.36 9.32-6.42 10.23-4.05.91-5.34.9-5.34.9L0
            24.03c1.61-.1 4.05-.37 5.58-1 1.4-.58 2.51-1.97 
            2.4-5.68l.08-7.87V5.45l3.91.02-.16 11.88z">
        </path>
    </symbol>

    <symbol id="menu-phone" viewBox="0 0 24 24" width="24" height="24">
        <path fill="none" d="M0 0h24v24H0V0z" ></path>
        <path d="M3 18h18v-2H3v2zm0-5h18v-2H3v2zm0-7v2h18V6H3z"></path>
    </symbol>    
   
    <symbol id="search" viewBox="0 0 24 24">
        <path d="M20.773 18.51l-4.322-4.464c-.31-.32-.697-.449-.865-.285-.168.163-.556.035-.866-.286l-.061-.064A6.488
            6.488 0 0 0 4.9 4.901a6.491 6.491 0 0 0 
            8.641 9.661l.027.029c.31.32.425.711.256.874-.168.163-.054.555.256.875l4.32 
            4.466c.31.32.82.33 1.141.02l1.213-1.174c.32-.31.328-.82.018-1.141zm-8.117-5.855a4.48 
            4.48 0 0 1-6.328 0 4.48 4.48 0 0 1 0-6.328 4.479 4.479 0 0 1 6.327 0 4.48 4.48 0 
            0 1 0 6.328z">
        </path>
    </symbol>

    <symbol id="initialise-search" viewBox="0 0 24 24" width="24" height="24">
        <path d="M19 6.41L17.59 5 12 10.59 6.41 5 
                5 6.41 10.59 12 5 17.59 6.41 19 12 
                13.41 17.59 19 19 17.59 13.41 12z">
        </path>
        <path d="M0 0h24v24H0z" fill="none"></path>
    </symbol>

    <symbol id="person" veiwBox="0 0 24 24" width="24" height="24" >
        <path d="M12 5.9a2.1 2.1 0 1 1 0 4.2 2.1 2.1 0 0 1 0-4.2m0 9c2.97
                0 6.1 1.46 6.1 2.1v1.1H5.9V17c0-.64 3.13-2.1 6.1-2.1M12 4C9.79 4 8 5.79
                8 8s1.79 4 4 4 4-1.79 4-4-1.79-4-4-4zm0 9c-2.67 0-8 1.34-8
                4v3h16v-3c0-2.66-5.33-4-8-4z">
        </path>
        <path d="M0 0h24v24H0z" fill="none">                                
        </path>
    </symbol>

    <symbol id="person-mob" veiwBox="0 0 24 24" >
        <path d="M12 5.14a2.36 2.36 0 1 1 0 4.72 2.36 2.36 0 0 1 0-4.72zm0 10.12c3.34
            0 6.86 1.65 6.86 2.37v1.23H5.14v-1.23c0-.72 3.52-2.37 
            6.86-2.37zM12 3a4.5 4.5 0 1 0 0 9 4.5 4.5 0 0 0 0-9zm0 10.13c-3 0-9 1.5-9
            4.5V21h18v-3.38c0-2.99-6-4.5-9-4.5z">
        </path>
        <path d="M0 0h24v24H0z" fill="none">                                
        </path>
    </symbol>

    <symbol id="show-list" viewBox="0 0 24 24" >
        <path d="M7.41 8.59L12 13.17l4.59-4.58L18 10l-6 6-6-6 1.41-1.41z">
        </path>
        <path d="M0 0h24v24H0V0z" fill="none"></path>
    </symbol>

    <symbol id="help-icon" veiwBox="0 0 24 24" width="24" height="24">
        <path d="M0 0h24v24H0z" fill="none"></path>
        <path d="M11 18h2v-2h-2v2zm1-16C6.48 2 2 6.48 2 12s4.48 10
                10 10 10-4.48 10-10S17.52 2 12 2zm0 18c-4.41 0-8-3.59-8-8s3.59-8
                8-8 8 3.59 8 8-3.59 8-8 8zm0-14c-2.21 0-4 1.79-4 
                4h2c0-1.1.9-2 2-2s2 .9 2 2c0 2-3 1.75-3 5h2c0-2.25 
                3-2.5 3-5 0-2.21-1.79-4-4-4z">
        </path>
    </symbol>

    <symbol id="panier-icon" veiwBox="0 0 24 24" >
        <path  d="M0 0h24v24H0V0z" fill="none"></path>
        <path  d="M15.55 13c.75 0 1.41-.41 1.75-1.03l3.58-6.49A.996.996
                0 0 0 20.01 4H5.21l-.94-2H1v2h2l3.6 7.59-1.35 2.44C4.52
                15.37 5.48 17 7 17h12v-2H7l1.1-2h7.45zM6.16 6h12.15l-2.76
                5H8.53L6.16 6zM7 18c-1.1 0-1.99.9-1.99 2S5.9 22 7 22s2-.9
                2-2-.9-2-2-2zm10 0c-1.1 0-1.99.9-1.99 2s.89 2 1.99
                2 2-.9 2-2-.9-2-2-2z">
        </path>
    </symbol>

    <symbol id="customer-order" veiwBox="0 0 24 24" >
        <path d="M21 8.344V8.203c0-.028 0-.056-.026-.084
                0-.028 0-.056-.027-.085 0-.028-.026-.056-.053-.084
                0-.028-.026-.028-.026-.056l-2.33-3.966c-.344-.59-.926-.928-1.562-.928H7.024c-.636
                0-1.218.337-1.562.928l-2.33 3.966c0 .028-.026.028-.026.056-.027.028-.027.056-.053.084
                0 .028-.027.057-.027.085 0 .028-.026.056-.026.084V18.75C3 19.988
                3.953 21 5.118 21h13.764C20.047 21 21 19.988 21 18.75V8.344zm-3.812-3.516L18.776
                7.5h-5.982V4.687h4.182c.08 0 .16.057.212.141zm-10.376 0c.053-.084.132-.14.212-.14h4.182V7.5H5.224l1.588-2.672zm7.04
                14.485h-3.705v-1.407h3.706v1.407zm5.56-.563c0 .31-.238.563-.53.563h-3.44v-2.25c0-.479-.345-.844-.795-.844H9.353c-.45
                0-.794.365-.794.843v2.25H5.118c-.292 0-.53-.253-.53-.562V9.187h14.824v9.563z" />
        </path>
    </symbol>

    <symbol id="your-favorite" veiwBox="0 0 512 512"  style="enable-background:new 0 0 24 24;" xml:space="preserve">
        <path d="M469.585,80.732c-55.679-52.984-146.306-52.984-202.003-0.012l-11.581,11l-11.569-10.995
			c-55.703-52.979-146.318-52.973-202.021,0C15.061,106.739,0,141.244,0,177.874c0,36.642,15.061,71.141,42.415,97.166
			l201.219,191.033c3.461,3.294,7.917,4.934,12.366,4.934c4.449,0,8.899-1.647,12.366-4.94l201.219-191.027
			C496.933,249.021,512,214.517,512,177.88C512,141.244,496.933,106.745,469.585,80.732z M444.829,248.991L256,428.269
			L67.177,248.997C47.026,229.835,35.93,204.576,35.93,177.88s11.096-51.955,31.247-71.117
			c21.019-20.001,48.625-29.995,76.237-29.995c27.618,0,55.236,10.006,76.255,30.007l23.953,22.75c6.934,6.593,17.815,6.593,24.75,0
			l23.959-22.762c42.044-39.996,110.448-39.996,152.492,0c20.145,19.163,31.247,44.421,31.247,71.117
			S464.968,229.829,444.829,248.991z" />
    </symbol>
    <symbol viewBox="0 0 24 24" id="favorite-border">
        <defs>
            <path id="favorite-border_a" d="M16.05 4A5.462 5.462 0 0 0 12 5.822 5.462 5.462 0 0 0 7.95 4C5.178 4 3 6.11 3 8.796c0 3.296 3.06 5.981 7.695 10.062L12 20l1.305-1.151C17.94 14.777 21 12.092 21 8.796 21 6.11 18.822 4 16.05 4zm-3.96 13.559l-.09.087-.09-.087C7.626 13.8 4.8 11.316 4.8 8.796c0-1.744 1.35-3.052 3.15-3.052 1.386 0 2.736.863 3.213 2.058h1.683c.468-1.195 1.818-2.058 3.204-2.058 1.8 0 3.15 1.308 3.15 3.052 0 2.52-2.826 5.005-7.11 8.763z" />
        </defs>
        <use fill="#282828" fill-rule="evenodd" xlink:href="#favorite-border_a" />
    </symbol>
</svg>

