<!-- <?xml version=1.0 encoding="utf-8"> -->
<svg xmlns="http://www.w3.org/2000/svg" xmlns:xlink="http://www.w3.org/1999/xlink" version="1.1"
     baseProfile="full" xml:space="preserve" viewBox="100 100 512 512" style="enable-background:new 0 0 24 24;">
    
    <symbol id="logo-site"  viewBox= "0 0 139 32" style="enable-background:new 0 0 139 32;" >
        <g fill="none" fill-rule="evenodd">
            <path  fill="#F68B1E" d="M131.27.26a7.33 7.33 0 0 1 7.21 7.43c0 4.1-3.23 
                7.43-7.21 7.43a7.33 7.33 0 0 1-7.22-7.43c0-4.1 3.23-7.43 
                7.22-7.43zm0 1.1l-1.83 3.8-4.07.62 2.95 2.95-.7 4.18 
                3.64-1.97 3.65 1.97-.7-4.18 2.95-2.95-4.07-.61-1.83-3.8z">
            </path>
            <path fill="#282828" 
                d="M126.3 17.3c.05-.3-.03-.6-.21-.82a.97.97 0 0 0-.76-.36h-.38c-.61 
                0-1.11.52-1.11 1.15V20c0 .55.43 1 .97 1 .52 0 .97-.4 
                1.06-.94l.44-2.76zm-4.9-4.9v-2.37c0-.63-.5-1.14-1.1-1.14h-1.5a1.02 
                1.02 0 0 0-1 1.18l.39 2.38c.1.63.62 1.09 1.24 1.09h.86c.6 0 1.1-.52
                1.1-1.15zm0 7.6v-2.73c0-.63-.5-1.15-1.11-1.15h-.4a.97.97 0 0 
                0-.74.36c-.19.23-.27.53-.22.82l.44 2.76c.09.54.53.93 
                1.06.93s.97-.44.97-.98zm-4.76.62c.19-.23.27-.52.22-.8l-.42-2.61a1.27
                1.27 0 0 0-1.24-1.09h-.6c-.29 0-.57.14-.74.38a.93.93 0 0 0-.16.78c.22.93.43
                1.72.6 2.35l.09.35c.15.6.69 1.01 1.3 1.01h.16c.3 
                0 .6-.13.8-.37zm-4.07-8.1c.15.6.68 1.02 1.3 1.02h.86c.28 
                0 .56-.13.75-.36.18-.23.26-.53.22-.82l-.39-2.39a1.26 1.26 0 0 
                0-1.22-1.08h-1.22a.96.96 0 0 0-.92 1.2l.15.6.47 1.83zm19.1 4.8a1
                1 0 0 0 .01-.4c.97-.07 1.9-.3 2.75-.67L133 22.12c-.2.86-.95 1.46-1.8 
                1.46h-17.02c-.86 0-1.6-.6-1.8-1.46l-4.11-17.28a1.35 1.35 0 0 0-1.3-1.06h-1.72c-.6
                0-1.08-.5-1.08-1.1 0-.62.48-1.13 1.08-1.13h3.14c.86 0 1.6.59 1.82 1.44l.56
                2.27c.16.61.7 1.04 1.31 1.04h10.63a8.76 8.76 0 0 0 6.3 10.38c-.1.15-.18.33-.22.53l-.41 
                2.6c-.05.3.03.6.22.84.18.22.44.34.72.34h.4c.6 0 1.11-.44 
                1.28-1.06l.07-.29c.17-.62.37-1.4.6-2.33zm-16.47 7.96a3.2 3.2 
                0 0 1 3.12 3.29 3.2 3.2 0 0 1-3.12 3.28 3.2 3.2 0 0 1-3.11-3.28
                3.2 3.2 0 0 1 3.11-3.29zm14.97 0a3.2 3.2 0 0 1 3.1 3.29 3.2 3.2
                0 0 1-3.1 3.28 3.2 3.2 0 0 1-3.12-3.28 3.2 3.2 0 0 1
                3.12-3.29zm-94.97.14c-1.38 1-3.6 1.5-6.63 1.5h-4.29c-.58 0-1.2
                0-1.88-.04-.66-.02-1.31-.1-1.96-.24a9.03 9.03 0 0 1-1.84-.6 4.86
                4.86 0 0 1-2.62-2.8 6.8 6.8 0 0 1-.4-2.5V5.45h3.92V20.5c0 1.6 
                1.45 2.39 4.35 2.39h5.27c2.85 0 4.28-.8 4.28-2.39V5.45h3.87v15.29c0 
                2.11-.7 3.67-2.07 4.68zm39.16 1.5V5.46h3.92v21.48h-3.92zm21-16.12l-3.73
                6.4h7.53l-3.8-6.4zm9.38 16.24l-3.25-5.8H89.4l-3.17 5.8h-4.63L93.29 
                6.9c.56-.96 1.3-1.45 2.18-1.45.92 0 1.65.48 2.22 1.43l11.46 
                20.16h-4.41zm-38.14.03V13.1l-8.37 12.85c-.3.45-.64.78-1.02 
                1-.4.23-.8.34-1.25.34-.95
                0-1.73-.45-2.3-1.34l-8.5-12.96v14.1h-3.93V7.8c0-.74.2-1.31.59-1.73.39-.42.9-.63
                1.51-.63.91 0 1.63.37 2.15 1.1l10.5 15.41L66.29 6.6a2.33
                2.33 0 0 1 2.07-1.14c.65 0 1.18.23 1.58.7.4.46.6 1.07.6
                1.83v19.1H66.6zm-54.8-9.72c0 6.55-2.36 9.32-6.42 10.23-4.05.91-5.34.9-5.34.9L0
                24.03c1.61-.1 4.05-.37 5.58-1 1.4-.58 2.51-1.97 
                2.4-5.68l.08-7.87V5.45l3.91.02-.16 11.88z">
            </path>
        </g>
    </symbol>

    <symbol id="menu-phone" viewBox="0 0 24 24" width="24" height="24">
        <path fill="none" d="M0 0h24v24H0V0z" ></path>
        <path d="M3 18h18v-2H3v2zm0-5h18v-2H3v2zm0-7v2h18V6H3z"></path>
    </symbol>    
   
    <symbol id="search" viewBox="0 0 24 24">
        <path d="M20.773 18.51l-4.322-4.464c-.31-.32-.697-.449-.865-.285-.168.163-.556.035-.866-.286l-.061-.064A6.488
            6.488 0 0 0 4.9 4.901a6.491 6.491 0 0 0 
            8.641 9.661l.027.029c.31.32.425.711.256.874-.168.163-.054.555.256.875l4.32 
            4.466c.31.32.82.33 1.141.02l1.213-1.174c.32-.31.328-.82.018-1.141zm-8.117-5.855a4.48 
            4.48 0 0 1-6.328 0 4.48 4.48 0 0 1 0-6.328 4.479 4.479 0 0 1 6.327 0 4.48 4.48 0 
            0 1 0 6.328z">
        </path>
    </symbol>

    <symbol id="initialise-search" viewBox="0 0 24 24" width="24" height="24">
        <path d="M19 6.41L17.59 5 12 10.59 6.41 5 
                5 6.41 10.59 12 5 17.59 6.41 19 12 
                13.41 17.59 19 19 17.59 13.41 12z">
        </path>
        <path d="M0 0h24v24H0z" fill="none"></path>
    </symbol>

    <symbol id="person" veiwBox="0 0 24 24" width="24" height="24" >
        <path d="M12 5.9a2.1 2.1 0 1 1 0 4.2 2.1 2.1 0 0 1 0-4.2m0 9c2.97
                0 6.1 1.46 6.1 2.1v1.1H5.9V17c0-.64 3.13-2.1 6.1-2.1M12 4C9.79 4 8 5.79
                8 8s1.79 4 4 4 4-1.79 4-4-1.79-4-4-4zm0 9c-2.67 0-8 1.34-8
                4v3h16v-3c0-2.66-5.33-4-8-4z">
        </path>
        <path d="M0 0h24v24H0z" fill="none">                                
        </path>
    </symbol>

    <symbol id="person-mob" veiwBox="0 0 24 24" >
        <path d="M12 5.14a2.36 2.36 0 1 1 0 4.72 2.36 2.36 0 0 1 0-4.72zm0 10.12c3.34
            0 6.86 1.65 6.86 2.37v1.23H5.14v-1.23c0-.72 3.52-2.37 
            6.86-2.37zM12 3a4.5 4.5 0 1 0 0 9 4.5 4.5 0 0 0 0-9zm0 10.13c-3 0-9 1.5-9
            4.5V21h18v-3.38c0-2.99-6-4.5-9-4.5z">
        </path>
        <path d="M0 0h24v24H0z" fill="none">                                
        </path>
    </symbol>

    <symbol id="show-list" viewBox="0 0 24 24" width="24" height="24">
        <path d="M7.41 8.59L12 13.17l4.59-4.58L18 10l-6 6-6-6 1.41-1.41z">
        </path>
        <path d="M0 0h24v24H0V0z" fill="none"></path>
    </symbol>

    <symbol id="help-icon" veiwBox="0 0 24 24" width="24" height="24">
        <path d="M0 0h24v24H0z" fill="none"></path>
        <path d="M11 18h2v-2h-2v2zm1-16C6.48 2 2 6.48 2 12s4.48 10
                10 10 10-4.48 10-10S17.52 2 12 2zm0 18c-4.41 0-8-3.59-8-8s3.59-8
                8-8 8 3.59 8 8-3.59 8-8 8zm0-14c-2.21 0-4 1.79-4 
                4h2c0-1.1.9-2 2-2s2 .9 2 2c0 2-3 1.75-3 5h2c0-2.25 
                3-2.5 3-5 0-2.21-1.79-4-4-4z">
        </path>
    </symbol>

    <symbol id="panier-icon" veiwBox="0 0 24 24" >
        <path  d="M0 0h24v24H0V0z" fill="none"></path>
        <path  d="M15.55 13c.75 0 1.41-.41 1.75-1.03l3.58-6.49A.996.996
                0 0 0 20.01 4H5.21l-.94-2H1v2h2l3.6 7.59-1.35 2.44C4.52
                15.37 5.48 17 7 17h12v-2H7l1.1-2h7.45zM6.16 6h12.15l-2.76
                5H8.53L6.16 6zM7 18c-1.1 0-1.99.9-1.99 2S5.9 22 7 22s2-.9
                2-2-.9-2-2-2zm10 0c-1.1 0-1.99.9-1.99 2s.89 2 1.99
                2 2-.9 2-2-.9-2-2-2z">
        </path>
    </symbol>

    <symbol id="customer-order" veiwBox="0 0 24 24" >
        <path d="M21 8.344V8.203c0-.028 0-.056-.026-.084
                0-.028 0-.056-.027-.085 0-.028-.026-.056-.053-.084
                0-.028-.026-.028-.026-.056l-2.33-3.966c-.344-.59-.926-.928-1.562-.928H7.024c-.636
                0-1.218.337-1.562.928l-2.33 3.966c0 .028-.026.028-.026.056-.027.028-.027.056-.053.084
                0 .028-.027.057-.027.085 0 .028-.026.056-.026.084V18.75C3 19.988
                3.953 21 5.118 21h13.764C20.047 21 21 19.988 21 18.75V8.344zm-3.812-3.516L18.776
                7.5h-5.982V4.687h4.182c.08 0 .16.057.212.141zm-10.376 0c.053-.084.132-.14.212-.14h4.182V7.5H5.224l1.588-2.672zm7.04
                14.485h-3.705v-1.407h3.706v1.407zm5.56-.563c0 .31-.238.563-.53.563h-3.44v-2.25c0-.479-.345-.844-.795-.844H9.353c-.45
                0-.794.365-.794.843v2.25H5.118c-.292 0-.53-.253-.53-.562V9.187h14.824v9.563z" />
        
    </symbol>

    <symbol id="your-favorite" veiwBox="0 0 512 512"  style="enable-background:new 0 0 24 24;" xml:space="preserve">
        <path d="M469.585,80.732c-55.679-52.984-146.306-52.984-202.003-0.012l-11.581,11l-11.569-10.995
			c-55.703-52.979-146.318-52.973-202.021,0C15.061,106.739,0,141.244,0,177.874c0,36.642,15.061,71.141,42.415,97.166
			l201.219,191.033c3.461,3.294,7.917,4.934,12.366,4.934c4.449,0,8.899-1.647,12.366-4.94l201.219-191.027
			C496.933,249.021,512,214.517,512,177.88C512,141.244,496.933,106.745,469.585,80.732z M444.829,248.991L256,428.269
			L67.177,248.997C47.026,229.835,35.93,204.576,35.93,177.88s11.096-51.955,31.247-71.117
			c21.019-20.001,48.625-29.995,76.237-29.995c27.618,0,55.236,10.006,76.255,30.007l23.953,22.75c6.934,6.593,17.815,6.593,24.75,0
			l23.959-22.762c42.044-39.996,110.448-39.996,152.492,0c20.145,19.163,31.247,44.421,31.247,71.117
			S464.968,229.829,444.829,248.991z" />
    </symbol>
    <symbol viewBox="0 0 24 24" id="cat-groceries">
        <path fill-rule="evenodd" 
            d="M20.672 7.538c-1.144-1.392-2.904-2.066-4.95-1.898a9.822 
            9.822 0 0 0-3.278.823c.132-1.497-.132-3.647-2.376-4.406-1.078-.359-1.54 1.096-.858 1.264 
            1.408.359 2.046 1.455 2.222 3.078-.968-.4-2.046-.674-3.168-.759-2.068-.147-3.828.528-4.95 
            1.898-1.475 1.792-1.717 4.575-.683 7.631 1.65 4.87 4.687 7.38 8.119 6.726a5.77 5.77 0 0 0 
            1.254-.401c.418.19.836.316 1.254.4.352.064.726.106 1.078.106 2.97 0 5.544-2.467 
            7.04-6.83 1.035-3.057.77-5.84-.704-7.632zm-.836 7.147c-.506 1.517-2.486 6.43-6.27 
            5.692a4.464 4.464 0 0 1-1.188-.422.835.835 0 0 0-.396-.084.895.895 0 0 
            0-.396.084c-.396.21-.792.358-1.188.422-3.762.738-5.742-4.175-6.27-5.692-.88-2.551-.727-4.828.418-6.22.814-.97 
            2.046-1.433 3.564-1.328 1.254.085 2.442.443 3.432 1.012a.845.845 
            0 0 0 .836 0c.99-.569 2.156-.927 3.432-1.012 1.54-.105 2.772.338 3.564 1.328 
            1.188 1.413 1.342 3.669.462 6.22z" />
    </symbol>

    <symbol viewBox="0 0 24 24" id="cat-mall">
        <path fill-rule="evenodd" 
            d="M12.004 2c1.974 0 3.255 1.982 4.056 4.022h4.829c.611 0 1.111.48 
            1.111 1.065v13.848C22 21.52 21.5 22 20.889 22H3.11C2.5 22 2 21.52 2 
            20.935V7.087c0-.586.5-1.065 1.111-1.065h4.766C8.727 4 10.056 2 12.004 
            2zM7.291 7.62H3.667v12.782h16.666V7.62h-3.73c.328 1.14.508 2.126.58 
            2.56.07.435-.24.844-.695.914a.901.901 0 0 1-.13.01.824.824 0 0 1-.822-.676 
            19.961 19.961 0 0 0-.68-2.808H9.034c-.323.937-.58 1.914-.744 
            2.782-.082.435-.518.718-.968.645-.453-.08-.754-.495-.672-.928.052-.28.258-1.287.641-2.5zm4.725 
            3.206c.165 0 .36.099.428.296l.818 2.036 2.2.164c.393.033.59.559.262.822l-1.74 1.413.526 
            2.135a.455.455 0 0 1-.426.59c-.066 0-.165 0-.23-.065l-1.87-1.15-1.87 
            1.15a.48.48 0 0 1-.23.065.456.456 0 0 
            1-.427-.59l.525-2.135-1.705-1.413c-.328-.296-.131-.822.263-.822l2.197-.164.853-2.036a.452.452 
            0 0 1 .426-.296zm-.012-7.228c-.854 0-1.663 
            1.035-2.323 2.424h4.57c-.622-1.39-1.4-2.424-2.247-2.424z" />
    </symbol>

    <symbol viewBox="0 0 24 24" id="cat-health">
        <defs>
        <path id="cat-health_a" 
            d="M21.044 4a5.852 5.852 0 0 0-4.186-1.775h-.128a7.336 7.336 0 0 0-4.564 1.673C10.74 
            2.638 9.36 2 8.066 2h-.02a6.61 6.61 0 0 0-4.742 2.025A6.898 6.898 0 0 0 1.5 
            7.562a.912.912 0 0 0 .726 1.065.91.91 0 0 0 1.059-.73 5.05 5.05 0 0 1 1.348-2.618 
            4.784 4.784 0 0 1 3.443-1.476h.016c.957 0 2.178.685 3.436 1.93.374.37.976.37 
            1.348-.003a5.565 5.565 0 0 1 3.932-1.701l.037-.001c1.084 0 2.14.447 2.9 1.226a5.103 
            5.103 0 0 1 1.443 3.587 5.211 5.211 0 0 1-.252 1.563h-5.51c-.24 0-.476.1-.648.276l-2.093 
            2.223L10.2 7.251a.904.904 0 0 0-1.603-.12l-2.014 3.323H1.908c-.5 0-.908.41-.908.915
            0 .504.407.914.908.914h5.195a.904.904 0 0 0 .754-.453l1.376-2.238 2.359 5.371a.912.912 
            0 0 0 .694.52h.122a.94.94 0 0 0 .668-.275l2.756-2.95h4.055l-.14.17-7.584 7.392-5.946-5.817a.899.899 
            0 0 0-.633-.26h-.01a.918.918 0 0 0-.626 1.57l6.604 6.428a.904.904 0 0 0 .636.259c.23 0 
            .46-.086.634-.259l8.223-8.007a7.034 7.034 0 0 0 0-9.734" />
        </defs>
        <use fill-rule="evenodd" xlink:href="#cat-health_a" />
    </symbol>

    <symbol viewBox="0 0 24 24" id="cat-appliance">
        <defs>
        <path id="cat-appliance_a" 
            d="M19.001 20.75h-15a.501.501 0 0 1-.5-.5c0-.275.225-.5.5-.5h15c.275 0 
            .5.225.5.5s-.225.5-.5.5zM3.5 3.583c0-.046.037-.083.083-.083h15.834c.046 
            0 .083.037.083.083v3.334a.083.083 0 0 1-.083.083H3.583a.083.083 0 0 
            1-.083-.083V3.583zM9.75 9.5h3.5v-1h-3.5v1zm5.603 
            5.533c.021.019.048.027.069.047.209.209.329.498.329.795a.75.75 0 
            0 0 1.5 0c0-.692-.28-1.369-.77-1.856a2.602 2.602 0 0 0-1.856-.769H9.079a1.373 
            1.373 0 0 0-1.332 1.718c.038.149.074.309.112.477.189.836.462 2.009 
            1.272 2.805H4.75V8.5h3.5v1.75c0 .414.336.75.75.75h.5v.5a.75.75 0 0 0 
            1.5 0V11h1v.5a.75.75 0 0 0 1.5 0V11h.5a.75.75 0 0 0 .75-.75V8.5h3.5v9.75h-4.114c.914-.841 
            1.154-2.137 1.217-3.217zm-6.115-.283h4.626c-.061 1.718-.429 2.875-2.364 2.875-1.503 
            0-1.825-.948-2.178-2.51-.028-.126-.055-.249-.084-.365zm10.512 3.648a2.002 2.002 
            0 0 1 1.251 1.852c0 1.103-.897 2-2 2h-15c-1.103 0-2-.897-2-2 0-.837.518-1.553 
            1.249-1.851V8.463A1.583 1.583 0 0 1 2 6.917V3.583C2 2.71 2.71 2 3.583 
            2h15.834C20.29 2 21 2.71 21 3.583v3.334c0 .759-.536 1.393-1.25 1.546v9.935zM17.437 
            5.855a.918.918 0 1 0 0-1.836.918.918 0 0 0 0 1.835zm-3.125 0a.918.918 0 1 0 
            0-1.836.918.918 0 0 0 0 1.835z" />
        </defs>
        <use fill-rule="evenodd" xlink:href="#cat-appliance_a" />
    </symbol>

    <symbol viewBox="0 0 24 24" id="cat-beauty">
        <path d="M9.7 13.23H8V8.66h.3a.74.74 0 0 0 .7-.75.75.75 0 0 0-.75-.76H8v-.58h.3a.76.76 
            0 0 0 0-1.51H8v-.58h.3a.75.75 0 0 0 .7-.76.74.74 0 0 0-.72-.72H8v-.24a.76.76 0 
            1 0-1.51 0V3h-.3a.76.76 0 1 0 0 1.51h.3v.58h-.3a.76.76 0 0 0 0 
            1.52h.3v.58h-.3a.76.76 0 1 0 0 1.51h.3v4.56H4.75A.76.76 0 0 0 4 14v6.38a2 2 
            0 0 0 2 2h2.42a2 2 0 0 0 2-2V14a.76.76 0 0 0-.72-.77zm-.76 7.13a.52.52 0 0 
            1-.52.53H6a.53.53 0 0 1-.53-.53v-5.62h3.47zM19.11 8.27h-.34V5.41a.76.76 0 0 
            0-.77-.75h-2.73a.76.76 0 0 0-.76.75v2.86h-.34a.76.76 0 0 0-.76.75v11.34a2 2 
            0 0 0 2 2h2.38a2 2 0 0 0 2-2V9a.76.76 0 0 0-.68-.73zM16 6.17h1.24v2.1H16zm2.33 
            14.19a.52.52 0 0 1-.52.53h-2.36a.53.53 0 0 1-.53-.53V9.78h3.43z" />
    </symbol>

    <symbol viewBox="0 0 24 24" id="cat-baby">
        <defs>
        <path id="cat-baby_a" 
            d="M21.58 11.335a2.913 2.913 0 0 1 2.121 2.81 2.907 2.907 0 0 1-2.182 2.832c-.237 
            1.947-1.184 3.398-2.819 4.317-1.477.83-3.555 1.232-6.35 1.232-2.794 
            0-4.872-.402-6.349-1.232-1.635-.919-2.582-2.37-2.819-4.317A2.907 2.907 0 
            0 1 1 14.145c0-1.316.867-2.455 2.121-2.81v-.107c0-5.088 4.141-9.227 9.23-9.227 
            5.088 0 9.23 4.139 9.23 9.228v.106zm-18.459 1.77a1.33 1.33 0 0 0-.51 1.04c0 
            .408.194.795.51 1.042v-2.082zm8.956-4.902c.808 0 1.465-.656 
            1.465-1.463 0-1.14-1.192-2.74-3.432-2.794-3.168.977-5.378 3.969-5.378 
            7.282v4.744c0 1.86.672 3.14 2.055 3.917 1.23.692 3.051 1.027 5.563 1.027 
            2.513 0 4.333-.335 5.563-1.027 1.384-.776 2.056-2.058 2.056-3.917v-4.743a7.616 
            7.616 0 0 0-6.227-7.49l.032.03c.863.821 1.378 1.933 1.378 2.97a3.08 3.08 0 0 
            1-3.075 3.076 2.624 2.624 0 0 1-2.62-2.621 2.261 2.261 0 0 1 2.257-2.26.806.806 
            0 0 1 0 1.61.649.649 0 0 0-.648.65c0 .556.453 1.01 1.011 1.01zm-2.06 
            8.576a.818.818 0 0 1 1.27-1.03 1.42 1.42 0 0 0 2.212 0 .816.816 0 0 1 
            1.15-.12.816.816 0 0 1 .12 1.15 3.044 3.044 0 0 1-2.374 1.134 3.049 3.049 0 
            0 1-2.378-1.134zm-2.382-4.524a1.905 1.905 0 0 1 2.69 0 .817.817 0 1 1-1.156 
            1.157.271.271 0 0 0-.38 0 .813.813 0 0 1-1.154 0 .815.815 0 0 1 0-1.157zm7.405 
            1.397a.817.817 0 0 1-.578-1.397 1.904 1.904 0 0 1 2.692 0 .817.817 0 1 1-1.157 
            1.157.27.27 0 0 0-.379 0 .813.813 0 0 1-.578.24zm7.05.494a1.33 1.33 0 0 
            0-.51-1.04v2.08a1.33 1.33 0 0 0 .51-1.04z" />
        </defs>
        <use fill-rule="evenodd" xlink:href="#cat-baby_a" />
    </symbol>

    <symbol viewBox="0 0 24 24" id="cat-fitness">
        <defs>
        <path id="cat-fitness_a" 
            d="M23 12.142c0-.644-.488-1.185-1.123-1.21V8.51c0-1.056-.806-1.906-1.807-1.906a1.5 
            1.5 0 0 0-.488.077V5.498C19.582 4.133 18.507 3 17.189 3c-1.319 0-2.393 1.107-2.393 
            2.498v5.433H9.229V5.498C9.229 4.133 8.154 3 6.836 3 5.517 3 4.443 4.107 4.443 
            5.498v1.184a1.5 1.5 0 0 0-.489-.077c-1 0-1.806.85-1.806 1.906v2.42c-.635 
            0-1.148.541-1.148 1.21 0 .67.513 1.21 1.148 1.21v2.138c0 1.056.805 1.906 1.806 
            1.906a1.5 1.5 0 0 0 .489-.077v1.184C4.443 19.867 5.517 21 6.836 21c1.318 0 
            2.393-1.107 2.393-2.498v-5.15h5.591v5.15c0 1.365 1.075 2.498 2.393 2.498 1.319 
            0 2.393-1.107 2.393-2.498v-1.184a1.5 1.5 0 0 0 .488.077c1.001 0 1.807-.85 
            1.807-1.906v-2.137c.61-.026 1.099-.567 1.099-1.21zM3.979 16.004a.504.504 0 0 
            1-.488-.515V8.511c0-.284.22-.515.488-.515.269 0 .488.231.488.515v6.978c0 
            .284-.22.515-.488.515zm3.931 2.498c0 .618-.488 1.107-1.074 1.107-.586 
            0-1.075-.489-1.075-1.107V5.498c0-.618.489-1.107 1.075-1.107S7.91 4.88 7.91 
            5.498v13.004zm10.353 0c0 .618-.488 1.107-1.074 1.107-.586 
            0-1.075-.489-1.075-1.107V5.498c0-.618.489-1.107 1.075-1.107s1.074.489 
            1.074 1.107v13.004zm2.295-3.013c0 .284-.22.515-.488.515a.504.504 0 0 
            1-.488-.515V8.511c0-.284.22-.515.488-.515.269 0 .488.231.488.515v6.978z" />
        </defs>
        <use xlink:href="#cat-fitness_a" />
    </symbol>

    <symbol viewBox="0 0 24 24" id="cat-fashion">
        <defs>
        <path id="cat-fashion_a" 
            d="M23.278 6.466a.738.738 0 0 1 .017.262.75.75 0 0 1-.079.252l-2.036 3.799a.68.68 
            0 0 1-.165.203.624.624 0 0 1-.729.05l-1.721-1.07v10.382a.724.724 0 0 
            1-.188.483.633.633 0 0 1-.463.205H6.382a.632.632 0 0 1-.464-.207.703.703 0 
            0 1-.186-.481V9.962l-1.72 1.07a.61.61 0 0 1-.245.089.578.578 0 0 1-.257-.018.645.645 
            0 0 1-.393-.324l-2.033-3.8a.73.73 0 0 1-.062-.514.688.688 0 0 1 .298-.416c1.059-.66 
            1.816-1.165 2.425-1.571.822-.55 1.318-.881 1.841-1.113.798-.354 1.48-.361 
            3.042-.365h.704a.631.631 0 0 1 .44.183.688.688 0 0 1 .207.438c.142 1.5 1.075 
            2.632 2.171 2.632 1.094 0 2.027-1.132 2.171-2.634a.71.71 0 0 1 .207-.436.63.63 
            0 0 1 .439-.182L15.536 3c1.623 0 2.343-.005 3.175.365.524.232 1.021.564 1.844 
            1.114.608.406 1.366.91 2.425 1.57a.694.694 0 0 1 
            .298.416zM17.35 8.42a.632.632 0 0 1 .895-.252l.672.418 
            1.408-2.632-.562-.371c-.743-.493-1.191-.791-1.555-.952-.56-.248-1.045-.274-2.542-.256h-.147c-.351 
            1.642-1.401 2.868-2.719 3.177v12.103h4.464V8.76c0-.12.03-.237.086-.34zm4.42-1.532l-.337-.214-1.395 
            2.609.337.21 1.395-2.605zm-18.972-.17l-.269.17 1.393 2.605.271-.168-1.395-2.607zm4.15 
            1.705a.724.724 0 0 1 .085.338v10.895h4.466V7.553c-1.318-.31-2.37-1.535-2.719-3.177l-.298-.002h-.071c-1.316 
            0-1.79.023-2.322.258-.364.162-.813.46-1.558.955l-.623.412 1.405 2.63.74-.46a.633.633 
            0 0 1 .895.254z" />
        </defs>
        <use fill-rule="evenodd" xlink:href="#cat-fashion_a" />
    </symbol>

    <symbol viewBox="0 0 24 24" id="cat-mobile">
        <path d="M17.89 2.1A3.63 3.63 0 0 0 15.28 1H8.7A3.73 3.73 0 0 0 5 4.75v14.48A3.73 
            3.73 0 0 0 8.7 23h6.55A3.73 3.73 0 0 0 19 19.23V4.75a3.68 3.68 0 0 
            0-1.11-2.65zm-9.19.44h6.55a2.2 2.2 0 0 1 2.08 1.51H6.65A2.14 2.14 0 0 1 8.7 
            2.54zM6.52 5.3h10.91V18H6.52zm10.3 15.49a2.14 2.14 0 0 1-1.54.65H8.7a2.2 2.2 
            0 0 1-2.18-2.16h10.91a2.18 2.18 0 0 1-.61 1.51z" />
    </symbol>

    <symbol viewBox="0 0 24 24" id="cat-tv">
        <defs>
        <path id="cat-tv_a" d="M3.585 20.464h16.829V8.336H3.585v12.128zM21.207 6.8c.437 0 
            .793.344.793.768v13.663a.781.781 0 0 1-.793.768H2.793A.78.78 0 0 1 2 
            21.232V7.569a.78.78 0 0 1 .793-.768h8.284L7.474 3.31a.75.75 0 0 1 0-1.086.81.81 
            0 0 1 1.12 0L12 5.522l3.406-3.297a.81.81 0 0 1 1.12 0c.31.3.31.786 0 1.086L12.923 
            6.8h8.284zm-8.908 11.36a3.866 3.866 0 0 1-3.862-3.862 3.867 3.867 0 0 1 3.862-3.863 
            3.867 3.867 0 0 1 3.862 3.863 3.866 3.866 0 0 1-3.862 3.862zm0-9.161A5.305 5.305 0 
            0 0 7 14.299a5.305 5.305 0 0 0 5.299 5.299 5.305 5.305 0 0 0 5.299-5.299A5.305 
            5.305 0 0 0 12.299 9zm-.624 6.914l2.56-1.548a.44.44 0 0 
            0-.01-.753l-2.55-1.547a.443.443 0 0 0-.675.376v3.095c0 .348.378.555.675.377z" />
        </defs>
        <use fill-rule="evenodd" xlink:href="#cat-tv_a" />
    </symbol>

    <symbol viewBox="0 0 24 24" id="cat-car">
        <defs>
        <path id="cat-car_a" 
            d="M21.324 9.783l-1.704-3.91A3.141 3.141 0 0 0 16.732 4H7.268A3.141 3.141 0 0 0 
            4.38 5.873l-1.704 3.91C1.684 10.303 1 11.32 1 12.5v1.545c0 1.14.637 2.125 1.571 
            2.661v2.749c0 .852.705 1.545 1.572 1.545h3.143c.866 0 1.571-.693 
            1.571-1.545v-2.319h6.286v2.319c0 .852.705 1.545 1.571 1.545h3.143c.867 0 
            1.572-.693 1.572-1.545v-2.749c.934-.536 1.571-1.522 
            1.571-2.66V12.5c0-1.18-.684-2.197-1.676-2.717zm-15.5-3.3a1.57 1.57 0 0 1 
            1.444-.938h9.464c.63 0 1.196.368 1.444.937l1.275 2.927H4.55l1.275-2.927zm1.463 
            12.972H4.143v-2.319h3.143v2.319zm12.57-2.319l.001 
            2.319h-3.144v-2.319h3.143zm1.572-3.09c0 .852-.705 1.545-1.572 1.545H4.143c-.867 
            0-1.572-.693-1.572-1.546V12.5c0-.852.705-1.545 1.572-1.545h15.714c.867 0 
            1.572.693 1.572 1.545v1.545zm-14.143-.773c0-.854-.704-1.546-1.572-1.546-.868 
            0-1.571.692-1.571 1.546 0 .853.703 1.545 1.571 1.545s1.572-.692 
            1.572-1.545zm12.571 0c0-.854-.703-1.546-1.571-1.546s-1.572.692-1.572 1.546c0 
            .853.704 1.545 1.572 1.545.868 0 1.571-.692 1.571-1.545zm-4.714 0a.78.78 0 0 
            0-.786-.773H9.643a.78.78 0 0 0-.786.773.78.78 0 0 0 .786.772h4.714a.78.78 0 0 
            0 .786-.772z" />
        </defs>
        <use xlink:href="#cat-car_a" />
    </symbol>

    <symbol viewBox="0 0 24 24" id="cat-othercategories">
        <defs>
        <path id="cat-othercategories_a" 
            d="M12 2c5.523 0 10 4.477 10 10s-4.477 10-10 10S2 17.523 2 12 6.477 2 12 
            2zm3.748 8.75a1.25 1.25 0 1 1 .005 2.5 1.25 1.25 0 0 1-.005-2.5zm-3.75 
            0a1.25 1.25 0 1 1 .005 2.5 1.25 1.25 0 0 1-.005-2.5zm-3.748 0a1.25 1.25 
            0 1 1 .001 2.499 1.25 1.25 0 0 1-.001-2.499zM12 20.438a8.437 8.437 0 1 
            0 0-16.875 8.437 8.437 0 1 0 0 16.875z" />
        </defs>
        <use xlink:href="#cat-othercategories_a" />
    </symbol>

    <symbol viewBox="0 0 24 24" id="arrow-left">
        <path fill-rule="evenodd" d="M15.18 15.84L11.34 12l3.84-3.82L14 7l-5 5 5 5z" />
    </symbol>
    <symbol viewBox="0 0 24 24" id="arrow-right">
        <path fill-rule="evenodd" d="M9 15.84L12.84 12 9 8.18 10.18 7l5 5-5 5z" />
    </symbol>

</svg>

